<svg
  width="1650"
  height="1650"
  viewBox="0 0 1650 1650"
  fill="none"
  xmlns="http://www.w3.org/2000/svg"
>
  <path
    d="M676.146 910.578L535.164 769.595V910.578C535.164 910.578 383.714 619.347 342.103 717.517C310.362 792.401 395.297 910.578 395.297 910.578"
    stroke="currentColor"
    stroke-width="62.6905"
  />
  <path
    d="M714.594 928V772.573H757.701V928H714.594ZM736.248 752.538C729.84 752.538 724.342 750.413 719.754 746.163C715.235 741.845 712.975 736.685 712.975 730.681C712.975 724.744 715.235 719.651 719.754 715.401C724.342 711.084 729.84 708.925 736.248 708.925C742.657 708.925 748.121 711.084 752.641 715.401C757.228 719.651 759.522 724.744 759.522 730.681C759.522 736.685 757.228 741.845 752.641 746.163C748.121 750.413 742.657 752.538 736.248 752.538ZM808.308 772.573L836.844 826.912L866.088 772.573H910.307L865.278 850.287L911.522 928H867.504L836.844 874.268L806.689 928H762.166L808.308 850.287L763.785 772.573H808.308ZM1015.63 861.822V772.573H1058.74V928H1017.35V899.768H1015.73C1012.23 908.875 1006.39 916.195 998.229 921.726C990.134 927.258 980.251 930.024 968.58 930.024C958.192 930.024 949.051 927.663 941.158 922.941C933.265 918.218 927.093 911.506 922.64 902.804C918.255 894.102 916.029 883.679 915.962 871.536V772.573H959.068V863.846C959.136 873.02 961.598 880.272 966.455 885.602C971.312 890.931 977.822 893.596 985.985 893.596C991.179 893.596 996.036 892.415 1000.56 890.054C1005.08 887.625 1008.72 884.05 1011.48 879.328C1014.32 874.606 1015.7 868.77 1015.63 861.822ZM1073.27 928V772.573H1115.07V799.692H1116.68C1119.52 790.045 1124.27 782.759 1130.95 777.835C1137.63 772.843 1145.32 770.347 1154.02 770.347C1156.18 770.347 1158.51 770.482 1161.01 770.752C1163.5 771.021 1165.69 771.392 1167.58 771.865V810.114C1165.56 809.507 1162.76 808.967 1159.18 808.495C1155.61 808.023 1152.34 807.787 1149.37 807.787C1143.03 807.787 1137.36 809.17 1132.37 811.936C1127.44 814.634 1123.53 818.412 1120.63 823.269C1117.8 828.126 1116.38 833.725 1116.38 840.066V928H1073.27ZM1209.79 930.934C1199.88 930.934 1191.04 929.214 1183.28 925.774C1175.52 922.266 1169.38 917.105 1164.86 910.292C1160.41 903.411 1158.18 894.844 1158.18 884.59C1158.18 875.955 1159.77 868.703 1162.94 862.834C1166.11 856.965 1170.43 852.243 1175.89 848.667C1181.36 845.092 1187.56 842.394 1194.51 840.572C1201.53 838.751 1208.88 837.469 1216.57 836.727C1225.61 835.783 1232.9 834.906 1238.43 834.096C1243.96 833.219 1247.97 831.938 1250.47 830.251C1252.97 828.565 1254.21 826.069 1254.21 822.763V822.156C1254.21 815.747 1252.19 810.789 1248.14 807.281C1244.16 803.773 1238.5 802.019 1231.14 802.019C1223.38 802.019 1217.21 803.739 1212.62 807.18C1208.04 810.553 1205 814.803 1203.52 819.93L1163.65 816.692C1165.67 807.247 1169.65 799.085 1175.59 792.204C1181.53 785.255 1189.18 779.926 1198.56 776.216C1208 772.438 1218.93 770.549 1231.34 770.549C1239.98 770.549 1248.24 771.561 1256.14 773.585C1264.1 775.609 1271.15 778.746 1277.28 782.996C1283.49 787.245 1288.38 792.71 1291.96 799.388C1295.53 805.999 1297.32 813.926 1297.32 823.168V928H1256.44V906.447H1255.23C1252.73 911.304 1249.39 915.587 1245.21 919.298C1241.03 922.941 1236 925.808 1230.13 927.899C1224.26 929.923 1217.48 930.934 1209.79 930.934ZM1222.14 901.185C1228.48 901.185 1234.08 899.937 1238.93 897.441C1243.79 894.877 1247.6 891.437 1250.37 887.119C1253.13 882.802 1254.52 877.911 1254.52 872.447V855.953C1253.17 856.83 1251.31 857.64 1248.95 858.382C1246.66 859.056 1244.06 859.697 1241.16 860.304C1238.26 860.844 1235.36 861.35 1232.46 861.822C1229.56 862.227 1226.93 862.598 1224.57 862.935C1219.51 863.677 1215.09 864.858 1211.31 866.477C1207.53 868.096 1204.6 870.288 1202.51 873.054C1200.41 875.753 1199.37 879.126 1199.37 883.173C1199.37 889.042 1201.49 893.528 1205.74 896.631C1210.06 899.667 1215.53 901.185 1222.14 901.185Z"
    fill="currentColor"
  />
</svg>
